<?xml version="1.0" encoding="UTF-8" standalone="no"?>
<!-- Created with Inkscape (http://www.inkscape.org/) -->

<svg
   version="1.1"
   id="svg1"
   width="465.38266"
   height="458.77734"
   viewBox="0 0 465.38266 458.77734"
   sodipodi:docname="test.pdf"
   xmlns:inkscape="http://www.inkscape.org/namespaces/inkscape"
   xmlns:sodipodi="http://sodipodi.sourceforge.net/DTD/sodipodi-0.dtd"
   xmlns="http://www.w3.org/2000/svg"
   xmlns:svg="http://www.w3.org/2000/svg">
  <defs
     id="defs1" />
  <sodipodi:namedview
     id="namedview1"
     pagecolor="#ffffff"
     bordercolor="#000000"
     borderopacity="0.25"
     inkscape:showpageshadow="2"
     inkscape:pageopacity="0.0"
     inkscape:pagecheckerboard="0"
     inkscape:deskcolor="#d1d1d1">
    <inkscape:page
       x="0"
       y="0"
       inkscape:label="1"
       id="page1"
       width="465.38266"
       height="458.77734"
       margin="0"
       bleed="0" />
  </sodipodi:namedview>
  <g
     id="g1"
     inkscape:groupmode="layer"
     inkscape:label="1">
    <path
       id="path1"
       d="M -106.3005,0 H 212.14278"
       style="fill:none;stroke:#000000;stroke-width:0.3985;stroke-linecap:butt;stroke-linejoin:miter;stroke-miterlimit:10;stroke-dasharray:none;stroke-opacity:1"
       transform="matrix(1.3333333,0,0,-1.3333333,149.55733,261.976)" />
    <path
       id="path2"
       d="M -1.19551,1.59401 C -1.09587,0.99626 0,0.09961 0.29886,0 0,-0.09961 -1.09587,-0.99626 -1.19551,-1.59401"
       style="fill:none;stroke:#000000;stroke-width:0.31879;stroke-linecap:round;stroke-linejoin:round;stroke-miterlimit:10;stroke-dasharray:none;stroke-opacity:1"
       transform="matrix(1.3333333,0,0,-1.3333333,432.41437,261.976)" />
    <path
       id="path3"
       d="m 2.2266953,-3.5149062 v -2.578125 c 0,-0.234375 0,-0.3515625 0.2226563,-0.3867188 0.1054687,-0.011719 0.3867187,-0.011719 0.5859375,-0.011719 0.9023437,0 2.015625,0.035156 2.015625,1.4765625 0,0.6914062 -0.234375,1.5 -1.7109375,1.5 z M 4.3360703,-3.386 c 0.9609375,-0.234375 1.7460938,-0.84375 1.7460938,-1.6289062 0,-0.9492188 -1.1367188,-1.7929688 -2.6015625,-1.7929688 H 0.35169531 v 0.3164063 h 0.234375 c 0.77343749,0 0.78515629,0.1054687 0.78515629,0.46875 v 5.24999995 c 0,0.3515625 -0.011719,0.46875 -0.78515629,0.46875 h -0.234375 V 7.1875e-4 C 0.70325781,-0.0344375 1.4181016,-0.0344375 1.8048203,-0.0344375 c 0.3867188,0 1.0898438,0 1.453125,0.03515625 v -0.3046875 h -0.234375 c -0.7734375,0 -0.796875,-0.1171875 -0.796875,-0.46875 V -3.29225 h 1.1484375 c 0.1640625,0 0.5742188,0 0.9257813,0.3398438 0.3867187,0.3515625 0.3867187,0.65625 0.3867187,1.3242187 0,0.65625 0,1.0546875 0.3984375,1.4296875 0.4101563,0.36328125 0.9609375,0.421875 1.2539063,0.421875 0.7851562,0 0.9492187,-0.8203125 0.9492187,-1.1015625 0,-0.0585938 0,-0.1640625 -0.1289062,-0.1640625 -0.1054688,0 -0.1054688,0.0820312 -0.1171875,0.15234375 -0.058594,0.71484375 -0.4101563,0.890625 -0.65625,0.890625 -0.4921875,0 -0.5742188,-0.50390625 -0.703125,-1.42968745 l -0.140625,-0.796875 C 5.3673203,-2.870375 4.8868516,-3.1985 4.3360703,-3.386 Z m 4.1103516,0.8789063 c 0.058594,-1.4882813 0.9023437,-1.734375 1.2421875,-1.734375 1.0195316,0 1.1249996,1.3476562 1.1249996,1.734375 z m -0.011719,0.2109375 h 2.7890631 c 0.210937,0 0.246093,0 0.246093,-0.2109375 0,-0.984375 -0.539062,-1.9570313 -1.7812498,-1.9570313 -1.1601563,0 -2.0742188,1.03125 -2.0742188,2.2734375 0,1.3359375 1.0429688,2.296875 2.1914063,2.296875 1.2187503,0 1.6640623,-1.1015625 1.6640623,-1.2890625 0,-0.1054687 -0.08203,-0.1171875 -0.128906,-0.1171875 -0.09375,0 -0.117187,0.058594 -0.128906,0.140625 -0.351563,1.01953125 -1.2539066,1.01953125 -1.3476566,1.01953125 -0.5039062,0 -0.9023437,-0.29296875 -1.125,-0.66796875 C 8.4347031,-1.2883437 8.4347031,-1.9445937 8.4347029,-2.2961562 Z m 0,0"
       style="fill:#000000;fill-opacity:1;fill-rule:nonzero;stroke:none"
       aria-label="Re"
       transform="matrix(1.3333333,0,0,1.3333333,437.71467,266.51467)" />
    <path
       id="path4"
       d="M 0,-141.73404 V 176.70924"
       style="fill:none;stroke:#000000;stroke-width:0.3985;stroke-linecap:butt;stroke-linejoin:miter;stroke-miterlimit:10;stroke-dasharray:none;stroke-opacity:1"
       transform="matrix(1.3333333,0,0,-1.3333333,149.55733,261.976)" />
    <path
       id="path5"
       d="M -1.19551,1.59401 C -1.09587,0.99626 0,0.09961 0.29886,0 0,-0.09961 -1.09587,-0.99626 -1.19551,-1.59401"
       style="fill:none;stroke:#000000;stroke-width:0.31879;stroke-linecap:round;stroke-linejoin:round;stroke-miterlimit:10;stroke-dasharray:none;stroke-opacity:1"
       transform="matrix(0,-1.3333333,-1.3333333,0,149.55733,26.36368)" />
    <path
       id="path6"
       d="m 2.2390313,-6.0235625 c 0,-0.3632812 0.035156,-0.46875 0.8203125,-0.46875 h 0.2578125 v -0.3164062 c -0.3515625,0.035156 -1.1367188,0.035156 -1.5117188,0.035156 -0.3867187,0 -1.171875,0 -1.5234375,-0.035156 v 0.3164062 h 0.2578125 c 0.7851563,0 0.8203125,0.1054688 0.8203125,0.46875 v 5.25 c 0,0.3515625 -0.035156,0.46875 -0.8203125,0.46875 H 0.282 V -1.25e-4 c 0.3515625,-0.03515625 1.1367188,-0.03515625 1.5117188,-0.03515625 0.3867187,0 1.171875,0 1.5234375,0.03515625 V -0.3048125 H 3.0593438 c -0.7851563,0 -0.8203125,-0.1171875 -0.8203125,-0.46875 z M 4.6999688,-3.422 v 2.66015625 c 0,0.45703125 -0.1171875,0.45703125 -0.7851563,0.45703125 V -1.25e-4 c 0.3515625,-0.01171875 0.8554688,-0.03515625 1.125,-0.03515625 0.2578125,0 0.7851563,0.0234375 1.1132813,0.03515625 v -0.3046875 c -0.65625,0 -0.7734375,0 -0.7734375,-0.45703125 V -2.5899687 c 0,-1.03125 0.7148437,-1.59375 1.3476562,-1.59375 0.6210938,0 0.7382813,0.5390625 0.7382813,1.1015625 v 2.32031245 c 0,0.45703125 -0.1171875,0.45703125 -0.7734375,0.45703125 V -1.25e-4 c 0.3398437,-0.01171875 0.8554687,-0.03515625 1.125,-0.03515625 0.2578125,0 0.7734375,0.0234375 1.1132812,0.03515625 v -0.3046875 c -0.6679687,0 -0.7851562,0 -0.7851562,-0.45703125 V -2.5899687 c 0,-1.03125 0.7148437,-1.59375 1.3476562,-1.59375 0.6328125,0 0.7382815,0.5390625 0.7382815,1.1015625 v 2.32031245 c 0,0.45703125 -0.105469,0.45703125 -0.7734377,0.45703125 V -1.25e-4 c 0.3515625,-0.01171875 0.8554687,-0.03515625 1.1249997,-0.03515625 0.257813,0 0.773438,0.0234375 1.113282,0.03515625 v -0.3046875 c -0.515625,0 -0.761719,0 -0.773438,-0.3046875 v -1.8984375 c 0,-0.8554687 0,-1.171875 -0.316406,-1.5234375 -0.128906,-0.1757812 -0.46875,-0.375 -1.042969,-0.375 -0.8320312,0 -1.2773437,0.5976563 -1.4414062,0.984375 -0.140625,-0.8671875 -0.8789063,-0.984375 -1.3242188,-0.984375 -0.7265625,0 -1.1953125,0.4335938 -1.4765625,1.0546875 V -4.406375 l -1.40625,0.1171875 V -3.9845 c 0.703125,0 0.7851563,0.070312 0.7851563,0.5625 z m 0,0"
       style="fill:#000000;fill-opacity:1;fill-rule:nonzero;stroke:none"
       aria-label="Im"
       transform="matrix(1.3333333,0,0,1.3333333,141.624,21.062667)" />
    <path
       id="path7"
       d="m 7.3715547,-4.3480859 c 0,-1.59375 -1.0546875,-2.671875 -2.5429688,-2.671875 -2.1445312,0 -4.33593746,2.2617187 -4.33593746,4.5820312 0,1.65234376 1.11328126,2.66015626 2.54296876,2.66015626 2.109375,0 4.3359375,-2.17968746 4.3359375,-4.57031246 z m -4.2773438,4.31249996 c -0.984375,0 -1.6757812,-0.80859375 -1.6757812,-2.12109376 0,-0.4453125 0.140625,-1.8984375 0.9023437,-3.0585937 0.6914063,-1.0429688 1.6640625,-1.5585938 2.4492188,-1.5585938 0.8203125,0 1.7109375,0.5625 1.7109375,2.0390625 0,0.7148438 -0.2695313,2.2734375 -1.2539063,3.5039063 -0.4804687,0.59765621 -1.2890625,1.19531246 -2.1328125,1.19531246 z m 0,0"
       style="fill:#000000;fill-opacity:1;fill-rule:nonzero;stroke:none"
       aria-label="O"
       transform="matrix(1.3333333,0,0,1.3333333,134.36267,275.74667)" />
    <path
       id="path8"
       d="m 144.24487,106.3232 c 0,1.36999 -1.11057,2.48057 -2.48057,2.48057 -1.37001,0 -2.4806,-1.11058 -2.4806,-2.48057 0,-1.37001 1.11059,-2.4806 2.4806,-2.4806 1.37,0 2.48057,1.11059 2.48057,2.4806 z"
       style="fill:#000000;fill-opacity:1;fill-rule:nonzero;stroke:#000000;stroke-width:0.3985;stroke-linecap:butt;stroke-linejoin:miter;stroke-miterlimit:10;stroke-dasharray:none;stroke-opacity:1"
       transform="matrix(1.3333333,0,0,-1.3333333,149.55733,261.976)" />
    <path
       id="path9"
       d="m 144.24487,-106.3232 c 0,1.37001 -1.11057,2.4806 -2.48057,2.4806 -1.37001,0 -2.4806,-1.11059 -2.4806,-2.4806 0,-1.36999 1.11059,-2.48057 2.4806,-2.48057 1.37,0 2.48057,1.11058 2.48057,2.48057 z"
       style="fill:#000000;fill-opacity:1;fill-rule:nonzero;stroke:#000000;stroke-width:0.3985;stroke-linecap:butt;stroke-linejoin:miter;stroke-miterlimit:10;stroke-dasharray:none;stroke-opacity:1"
       transform="matrix(1.3333333,0,0,-1.3333333,149.55733,261.976)" />
    <path
       id="path10"
       d="M 141.7643,106.3232 141.73404,0"
       style="fill:none;stroke:#000000;stroke-width:0.3985;stroke-linecap:butt;stroke-linejoin:miter;stroke-miterlimit:10;stroke-dasharray:2.98883, 2.98883;stroke-dashoffset:0;stroke-opacity:1"
       transform="matrix(1.3333333,0,0,-1.3333333,149.55733,261.976)" />
    <path
       id="path11"
       d="m 0,106.3005 141.7643,0.0227"
       style="fill:none;stroke:#000000;stroke-width:0.3985;stroke-linecap:butt;stroke-linejoin:miter;stroke-miterlimit:10;stroke-dasharray:2.98883, 2.98883;stroke-dashoffset:0;stroke-opacity:1"
       transform="matrix(1.3333333,0,0,-1.3333333,149.55733,261.976)" />
    <path
       id="path12"
       d="M 141.7643,-106.3232 141.73404,0"
       style="fill:none;stroke:#000000;stroke-width:0.3985;stroke-linecap:butt;stroke-linejoin:miter;stroke-miterlimit:10;stroke-dasharray:2.98883, 2.98883;stroke-dashoffset:0;stroke-opacity:1"
       transform="matrix(1.3333333,0,0,-1.3333333,149.55733,261.976)" />
    <path
       id="path13"
       d="m 0,-106.3005 141.7643,-0.0227"
       style="fill:none;stroke:#000000;stroke-width:0.3985;stroke-linecap:butt;stroke-linejoin:miter;stroke-miterlimit:10;stroke-dasharray:2.98883, 2.98883;stroke-dashoffset:0;stroke-opacity:1"
       transform="matrix(1.3333333,0,0,-1.3333333,149.55733,261.976)" />
    <path
       id="path14"
       d="m 3.3289844,-3.0117422 c 0.058594,-0.2578125 0.2929687,-1.171875 0.984375,-1.171875 0.046875,0 0.2929687,0 0.5039062,0.1289063 -0.28125,0.046875 -0.4804687,0.3046875 -0.4804687,0.5390625 0,0.1640625 0.1054687,0.3515625 0.375,0.3515625 0.2226562,0 0.5390625,-0.1875 0.5390625,-0.5859375 0,-0.515625 -0.5859375,-0.65625 -0.9257813,-0.65625 -0.5742187,0 -0.9257812,0.5273437 -1.0429687,0.7617187 -0.2578125,-0.65625 -0.7851563,-0.7617187 -1.078125,-0.7617187 -1.0429688,0 -1.60546877,1.2890625 -1.60546877,1.5351562 0,0.1054688 0.10546875,0.1054688 0.1171875,0.1054688 0.0820313,0 0.1171875,-0.023437 0.12890625,-0.1171875 0.33984372,-1.0546875 0.99609372,-1.3007813 1.33593752,-1.3007813 0.1875,0 0.5390625,0.09375 0.5390625,0.6679688 0,0.3046875 -0.1640625,0.9726562 -0.5390625,2.3671875 -0.1523438,0.62109371 -0.5039063,1.04296871 -0.9492188,1.04296871 -0.058594,0 -0.28124997,0 -0.49218747,-0.12890625 0.24609375,-0.0585937 0.46874997,-0.26953125 0.46874997,-0.5390625 0,-0.26953126 -0.22265622,-0.35156246 -0.37499997,-0.35156246 -0.29296875,0 -0.5390625,0.25781246 -0.5390625,0.57421871 0,0.45703125 0.4921875,0.65625 0.93749997,0.65625 0.65625,0 1.0078125,-0.69140625 1.0429688,-0.75 0.1171875,0.36328125 0.4804687,0.75 1.078125,0.75 1.0195312,0 1.59375,-1.27734371 1.59375,-1.53515621 0,-0.09375 -0.09375,-0.09375 -0.1289063,-0.09375 -0.082031,0 -0.1054687,0.035156 -0.1289062,0.1054687 -0.328125,1.06640626 -0.9960938,1.31250001 -1.3242188,1.31250001 -0.3867187,0 -0.5390625,-0.328125 -0.5390625,-0.65625 0,-0.22265625 0.058594,-0.44531251 0.1640625,-0.87890621 z m 0,0"
       style="fill:#000000;fill-opacity:1;fill-rule:nonzero;stroke:none"
       aria-label="x"
       transform="matrix(1.3333333,0,0,1.3333333,347.00667,276.168)" />
    <path
       id="path15"
       d="m 4.8400938,-3.7965 c 0.046875,-0.140625 0.046875,-0.1523437 0.046875,-0.2226562 0,-0.1875 -0.140625,-0.2695313 -0.2929688,-0.2695313 -0.1054687,0 -0.2578125,0.058594 -0.3515625,0.1992188 -0.023437,0.058594 -0.09375,0.3632812 -0.140625,0.5390625 -0.070312,0.2578125 -0.140625,0.5273437 -0.1992187,0.796875 l -0.4453125,1.7929687 c -0.035156,0.15234375 -0.46875,0.85546875 -1.125,0.85546875 -0.5039063,0 -0.6210938,-0.4453125 -0.6210938,-0.80859375 0,-0.4570312 0.1757813,-1.078125 0.515625,-1.9570312 0.1523438,-0.4101563 0.1992188,-0.515625 0.1992188,-0.7148438 0,-0.4453125 -0.328125,-0.8203125 -0.8203125,-0.8203125 -0.9492188,0 -1.31250005,1.453125 -1.31250005,1.5351563 0,0.1054687 0.09375,0.1054687 0.1171875,0.1054687 0.09375,0 0.10546875,-0.023437 0.15234375,-0.1875 0.26953125,-0.9375 0.6679688,-1.2304687 1.0078125,-1.2304687 0.082031,0 0.2578125,0 0.2578125,0.3164062 0,0.2460938 -0.1054687,0.515625 -0.1757812,0.703125 C 1.2541563,-2.109 1.078375,-1.5465 1.078375,-1.07775 c 0,0.890625 0.6210938,1.18359375 1.21875,1.18359375 0.3867188,0 0.7265625,-0.1640625 0.9960938,-0.4453125 C 3.1643125,0.17615625 3.047125,0.66834375 2.6486875,1.1956875 2.390875,1.5355313 2.015875,1.8285 1.5588438,1.8285 c -0.140625,0 -0.5976563,-0.035156 -0.7617188,-0.421875 0.1640625,0 0.2929688,0 0.4335938,-0.1171875 0.09375,-0.09375 0.1992187,-0.2226562 0.1992187,-0.41015625 0,-0.31640625 -0.2695312,-0.3515625 -0.375,-0.3515625 -0.22265625,0 -0.55078125,0.1640625 -0.55078125,0.64453125 0,0.5039063 0.43359375,0.8671875 1.05468755,0.8671875 1.0195312,0 2.0507812,-0.9023437 2.3320312,-2.02734375 z m 0,0"
       style="fill:#000000;fill-opacity:1;fill-rule:nonzero;stroke:none"
       aria-label="y"
       transform="matrix(1.3333333,0,0,1.3333333,137.87467,121.812)" />
    <g
       id="g15"
       aria-label="−y"
       transform="matrix(1.3333333,0,0,1.3333333,127.54267,406.292)">
      <path
         id="path16"
         d="m 6.5627266,-2.2961484 c 0.1757812,0 0.3515625,0 0.3515625,-0.1992188 0,-0.1992187 -0.1757813,-0.1992187 -0.3515625,-0.1992187 h -5.390625 c -0.1640625,0 -0.33984379,0 -0.33984379,0.1992187 0,0.1992188 0.17578129,0.1992188 0.33984379,0.1992188 z m 0,0"
         style="fill:#000000;fill-opacity:1;fill-rule:nonzero;stroke:none" />
      <path
         id="path17"
         d="m 12.589094,-3.7961484 c 0.04687,-0.140625 0.04687,-0.1523438 0.04687,-0.2226563 0,-0.1875 -0.140625,-0.2695312 -0.292969,-0.2695312 -0.105469,0 -0.257812,0.058594 -0.351562,0.1992187 -0.02344,0.058594 -0.09375,0.3632813 -0.140625,0.5390625 -0.07031,0.2578125 -0.140625,0.5273438 -0.199219,0.796875 l -0.445313,1.79296876 c -0.03516,0.15234375 -0.46875,0.85546875 -1.125,0.85546875 -0.503906,0 -0.6210935,-0.4453125 -0.6210935,-0.80859375 0,-0.45703126 0.1757813,-1.07812496 0.515625,-1.95703126 0.1523435,-0.4101562 0.1992185,-0.515625 0.1992185,-0.7148437 0,-0.4453125 -0.3281247,-0.8203125 -0.8203122,-0.8203125 -0.9492188,0 -1.3125,1.453125 -1.3125,1.5351562 0,0.1054688 0.09375,0.1054688 0.1171875,0.1054688 0.09375,0 0.1054687,-0.023437 0.1523437,-0.1875 0.2695313,-0.9375 0.6679688,-1.2304688 1.0078125,-1.2304688 0.082031,0 0.2578125,0 0.2578125,0.3164063 0,0.2460937 -0.1054687,0.515625 -0.1757812,0.703125 -0.3984375,1.0546875 -0.5742188,1.6171875 -0.5742188,2.0859375 0,0.89062496 0.6210938,1.18359371 1.21875,1.18359371 0.386719,0 0.726563,-0.1640625 0.996094,-0.4453125 -0.128906,0.515625 -0.246094,1.0078125 -0.644531,1.53515629 -0.257813,0.3398437 -0.632813,0.6328125 -1.0898442,0.6328125 -0.140625,0 -0.5976563,-0.035156 -0.7617188,-0.421875 0.1640625,0 0.2929688,0 0.4335938,-0.1171875 0.09375,-0.09375 0.1992187,-0.2226563 0.1992187,-0.41015629 0,-0.31640625 -0.2695312,-0.3515625 -0.375,-0.3515625 -0.2226562,0 -0.5507812,0.1640625 -0.5507812,0.64453129 0,0.5039062 0.4335937,0.8671875 1.0546875,0.8671875 1.0195312,0 2.0507812,-0.9023438 2.3320312,-2.02734379 z m 0,0"
         style="fill:#000000;fill-opacity:1;fill-rule:nonzero;stroke:none" />
    </g>
    <g
       id="g17"
       aria-label="z=x+yi"
       transform="matrix(1.3333333,0,0,1.3333333,350.82533,105.37867)">
      <path
         id="path18"
         d="M 1.3233828,-0.83185156 C 1.8624453,-1.4060703 2.1554141,-1.6521641 2.5069766,-1.9568516 c 0,-0.011719 0.6210937,-0.5390625 0.984375,-0.9023437 0.9375,-0.9257813 1.1601562,-1.40625 1.1601562,-1.4414063 0,-0.1054687 -0.09375,-0.1054687 -0.1054687,-0.1054687 -0.070312,0 -0.1054688,0.023437 -0.1523438,0.1171875 -0.3046875,0.46875 -0.5039062,0.6328125 -0.75,0.6328125 -0.234375,0 -0.3515625,-0.1523438 -0.5039062,-0.3164063 -0.1875,-0.234375 -0.3632813,-0.4335937 -0.6914063,-0.4335937 -0.75,0 -1.2070312,0.9257812 -1.2070312,1.1367187 0,0.046875 0.035156,0.1171875 0.1171875,0.1171875 0.09375,0 0.1171875,-0.058594 0.140625,-0.1171875 0.1875,-0.4570312 0.7617187,-0.46875 0.84375,-0.46875 0.2109375,0 0.3984375,0.070312 0.6210937,0.1523438 0.3984375,0.1523437 0.515625,0.1523437 0.7734375,0.1523437 -0.3632812,0.421875 -1.1953125,1.1367188 -1.3828125,1.3007813 l -0.9023437,0.8320312 c -0.67968754,0.66796879 -1.01953129,1.24218754 -1.01953129,1.31250004 0,0.09375 0.09375,0.09375 0.1171875,0.09375 0.0820313,0 0.09375,-0.01171875 0.15234375,-0.12890625 0.234375,-0.33984375 0.52734374,-0.609375 0.85546874,-0.609375 0.2226563,0 0.328125,0.0820313 0.5742188,0.375 0.1640625,0.2109375 0.3515625,0.36328125 0.6328125,0.36328125 0.984375,0 1.5703125,-1.26562504 1.5703125,-1.53515624 0,-0.046875 -0.046875,-0.09375 -0.1171875,-0.09375 -0.09375,0 -0.1171875,0.058594 -0.140625,0.1289062 -0.234375,0.64453129 -0.8671875,0.83203129 -1.1953125,0.83203129 -0.1992188,0 -0.3867188,-0.0585938 -0.5859375,-0.12890625 -0.3398438,-0.12890625 -0.4921875,-0.1640625 -0.703125,-0.1640625 -0.023437,0 -0.1757813,0 -0.2695313,0.0234375 z m 0,0"
         style="fill:#000000;fill-opacity:1;fill-rule:nonzero;stroke:none" />
      <path
         id="path19"
         d="m 14.685687,-3.2576328 c 0.152344,0 0.339844,0 0.339844,-0.1992188 0,-0.1992187 -0.1875,-0.1992187 -0.328125,-0.1992187 H 8.7325625 c -0.140625,0 -0.328125,0 -0.328125,0.1992187 0,0.1992188 0.1875,0.1992188 0.3398437,0.1992188 z m 0.01172,1.9335937 c 0.140625,0 0.328125,0 0.328125,-0.1992187 0,-0.1992188 -0.1875,-0.1992188 -0.339844,-0.1992188 H 8.7442812 c -0.1523437,0 -0.3398437,0 -0.3398437,0.1992188 0,0.1992187 0.1875,0.1992187 0.328125,0.1992187 z m 0,0"
         style="fill:#000000;fill-opacity:1;fill-rule:nonzero;stroke:none" />
      <path
         id="path20"
         d="m 21.678852,-3.0115391 c 0.05859,-0.2578125 0.292968,-1.171875 0.984375,-1.171875 0.04687,0 0.292968,0 0.503906,0.1289063 -0.28125,0.046875 -0.480469,0.3046875 -0.480469,0.5390625 0,0.1640625 0.105469,0.3515625 0.375,0.3515625 0.222656,0 0.539063,-0.1875 0.539063,-0.5859375 0,-0.515625 -0.585938,-0.65625 -0.925782,-0.65625 -0.574218,0 -0.925781,0.5273437 -1.042968,0.7617187 -0.257813,-0.65625 -0.785157,-0.7617187 -1.078125,-0.7617187 -1.042969,0 -1.605469,1.2890625 -1.605469,1.5351562 0,0.1054688 0.105469,0.1054688 0.117187,0.1054688 0.08203,0 0.117188,-0.023437 0.128907,-0.1171875 0.339843,-1.0546875 0.996093,-1.3007813 1.335937,-1.3007813 0.1875,0 0.539063,0.09375 0.539063,0.6679688 0,0.3046875 -0.164063,0.9726562 -0.539063,2.3671875 -0.152344,0.62109374 -0.503906,1.04296874 -0.949219,1.04296874 -0.05859,0 -0.28125,0 -0.492187,-0.12890625 0.246094,-0.0585938 0.46875,-0.26953125 0.46875,-0.5390625 0,-0.26953129 -0.222656,-0.35156249 -0.375,-0.35156249 -0.292969,0 -0.539063,0.25781249 -0.539063,0.57421874 0,0.45703125 0.492188,0.65625 0.9375,0.65625 0.65625,0 1.007813,-0.69140625 1.042969,-0.75 0.117188,0.36328125 0.480469,0.75 1.078125,0.75 1.019531,0 1.59375,-1.27734374 1.59375,-1.53515624 0,-0.09375 -0.09375,-0.09375 -0.128906,-0.09375 -0.08203,0 -0.105469,0.035156 -0.128906,0.1054687 -0.328125,1.06640629 -0.996094,1.31250004 -1.324219,1.31250004 -0.386719,0 -0.539063,-0.328125 -0.539063,-0.65625 0,-0.22265625 0.05859,-0.44531254 0.164063,-0.87890624 z m 0,0"
         style="fill:#000000;fill-opacity:1;fill-rule:nonzero;stroke:none" />
      <path
         id="path21"
         d="m 30.344867,-2.2966953 h 2.777344 c 0.140625,0 0.328125,0 0.328125,-0.1992188 0,-0.1992187 -0.1875,-0.1992187 -0.328125,-0.1992187 h -2.777344 v -2.7890625 c 0,-0.1289063 0,-0.328125 -0.199219,-0.328125 -0.199218,0 -0.199218,0.1992187 -0.199218,0.328125 v 2.7890625 h -2.789063 c -0.140625,0 -0.328125,0 -0.328125,0.1992187 0,0.1992188 0.1875,0.1992188 0.328125,0.1992188 h 2.789063 v 2.80078124 c 0,0.12890625 0,0.328125 0.199218,0.328125 0.199219,0 0.199219,-0.19921875 0.199219,-0.328125 z m 0,0"
         style="fill:#000000;fill-opacity:1;fill-rule:nonzero;stroke:none" />
      <path
         id="path22"
         d="m 41.064594,-3.7966953 c 0.04687,-0.140625 0.04687,-0.1523438 0.04687,-0.2226563 0,-0.1875 -0.140625,-0.2695312 -0.292969,-0.2695312 -0.105469,0 -0.257813,0.058594 -0.351563,0.1992187 -0.02344,0.058594 -0.09375,0.3632813 -0.140625,0.5390625 -0.07031,0.2578125 -0.140625,0.5273438 -0.199218,0.796875 l -0.445313,1.79296879 c -0.03516,0.15234375 -0.46875,0.85546875 -1.125,0.85546875 -0.503906,0 -0.621094,-0.4453125 -0.621094,-0.80859375 0,-0.45703129 0.175782,-1.07812499 0.515625,-1.95703129 0.152344,-0.4101562 0.199219,-0.515625 0.199219,-0.7148437 0,-0.4453125 -0.328125,-0.8203125 -0.820312,-0.8203125 -0.949219,0 -1.3125,1.453125 -1.3125,1.5351562 0,0.1054688 0.09375,0.1054688 0.117187,0.1054688 0.09375,0 0.105469,-0.023437 0.152344,-0.1875 0.269531,-0.9375 0.667969,-1.2304688 1.007812,-1.2304688 0.08203,0 0.257813,0 0.257813,0.3164063 0,0.2460937 -0.105469,0.515625 -0.175781,0.703125 -0.398438,1.0546875 -0.574219,1.6171875 -0.574219,2.0859375 0,0.89062499 0.621094,1.18359374 1.21875,1.18359374 0.386719,0 0.726562,-0.1640625 0.996094,-0.4453125 -0.128907,0.515625 -0.246094,1.0078125 -0.644532,1.53515626 -0.257812,0.3398437 -0.632812,0.6328125 -1.089843,0.6328125 -0.140625,0 -0.597657,-0.035156 -0.761719,-0.421875 0.164062,0 0.292969,0 0.433594,-0.1171875 0.09375,-0.09375 0.199218,-0.2226563 0.199218,-0.41015626 0,-0.31640625 -0.269531,-0.3515625 -0.375,-0.3515625 -0.222656,0 -0.550781,0.1640625 -0.550781,0.64453126 0,0.5039062 0.433594,0.8671875 1.054688,0.8671875 1.019531,0 2.050781,-0.9023438 2.332031,-2.02734376 z m 3.228515,-2.4257813 c 0,-0.1992187 -0.128906,-0.3632812 -0.363281,-0.3632812 -0.269531,0 -0.539062,0.2578125 -0.539062,0.5273437 0,0.1875 0.140625,0.3632813 0.375,0.3632813 0.234375,0 0.527343,-0.234375 0.527343,-0.5273438 z m -0.75,3.7382813 c 0.117188,-0.28125 0.117188,-0.3046875 0.222657,-0.5742188 0.07031,-0.1992187 0.128906,-0.3398437 0.128906,-0.5273437 0,-0.4453125 -0.328125,-0.8203125 -0.820313,-0.8203125 -0.9375,0 -1.3125,1.453125 -1.3125,1.5351562 0,0.1054688 0.09375,0.1054688 0.117188,0.1054688 0.09375,0 0.105469,-0.023437 0.152344,-0.1875 0.269531,-0.9375 0.667968,-1.2304688 1.007812,-1.2304688 0.08203,0 0.257813,0 0.257813,0.3164063 0,0.2109375 -0.07031,0.421875 -0.117188,0.515625 -0.08203,0.2578125 -0.527344,1.4179687 -0.679687,1.8515625 -0.105469,0.2578125 -0.234375,0.58593749 -0.234375,0.79687499 0,0.46875 0.339843,0.80859375 0.820312,0.80859375 0.9375,0 1.300781,-1.44140624 1.300781,-1.53515624 0,-0.09375 -0.09375,-0.09375 -0.117187,-0.09375 -0.105469,0 -0.105469,0.023437 -0.152344,0.1757812 -0.175781,0.63281254 -0.503906,1.24218754 -1.019531,1.24218754 -0.164063,0 -0.234375,-0.10546875 -0.234375,-0.328125 0,-0.2578125 0.05859,-0.3984375 0.292969,-0.99609374 z m 0,0"
         style="fill:#000000;fill-opacity:1;fill-rule:nonzero;stroke:none" />
    </g>
    <g
       id="g22"
       aria-label="¯z=x−yi"
       transform="matrix(1.3333333,0,0,1.3333333,351.624,424.752)">
      <path
         id="path23"
         d="M 4.2898125,-5.5649766 V -5.8813828 H 0.69215625 v 0.3164062 z m 0,0"
         style="fill:#000000;fill-opacity:1;fill-rule:nonzero;stroke:none" />
      <path
         id="path24"
         d="M 0.7273125,-0.83060156 C 1.266375,-1.4048203 1.5593438,-1.6509141 1.9109063,-1.9556016 c 0,-0.011719 0.6210937,-0.5390625 0.984375,-0.9023437 0.9375,-0.9257813 1.1601562,-1.40625 1.1601562,-1.4414063 0,-0.1054687 -0.09375,-0.1054687 -0.1054687,-0.1054687 -0.070312,0 -0.1054688,0.023437 -0.1523438,0.1171875 -0.3046875,0.46875 -0.5039062,0.6328125 -0.75,0.6328125 -0.234375,0 -0.3515625,-0.1523438 -0.5039062,-0.3164063 -0.1875,-0.234375 -0.3632813,-0.4335937 -0.6914063,-0.4335937 -0.75,0 -1.20703125,0.9257812 -1.20703125,1.1367187 0,0.046875 0.0351563,0.1171875 0.1171875,0.1171875 0.09375,0 0.1171875,-0.058594 0.140625,-0.1171875 0.18750005,-0.4570312 0.76171875,-0.46875 0.84375005,-0.46875 0.2109375,0 0.3984375,0.070312 0.6210937,0.1523438 0.3984375,0.1523437 0.515625,0.1523437 0.7734375,0.1523437 -0.3632812,0.421875 -1.1953125,1.1367188 -1.3828125,1.3007813 l -0.90234375,0.8320312 c -0.6796875,0.66796879 -1.01953125,1.24218754 -1.01953125,1.31250004 0,0.09375 0.09375,0.09375 0.1171875,0.09375 0.08203125,0 0.09375,-0.01171875 0.15234375,-0.12890625 0.234375,-0.33984375 0.52734375,-0.609375 0.85546875,-0.609375 0.2226563,0 0.328125,0.0820313 0.5742188,0.375 0.1640625,0.2109375 0.3515625,0.36328125 0.6328125,0.36328125 0.984375,0 1.5703125,-1.26562504 1.5703125,-1.53515624 0,-0.046875 -0.046875,-0.09375 -0.1171875,-0.09375 -0.09375,0 -0.1171875,0.058594 -0.140625,0.1289062 -0.234375,0.64453129 -0.8671875,0.83203129 -1.1953125,0.83203129 -0.1992188,0 -0.3867188,-0.0585938 -0.5859375,-0.12890625 -0.3398438,-0.12890625 -0.4921875,-0.1640625 -0.70312505,-0.1640625 -0.0234375,0 -0.17578125,0 -0.26953125,0.0234375 z m 0,0"
         style="fill:#000000;fill-opacity:1;fill-rule:nonzero;stroke:none" />
      <path
         id="path25"
         d="m 14.086688,-3.2563828 c 0.152343,0 0.339843,0 0.339843,-0.1992188 0,-0.1992187 -0.1875,-0.1992187 -0.328125,-0.1992187 H 8.1335625 c -0.140625,0 -0.328125,0 -0.328125,0.1992187 0,0.1992188 0.1875,0.1992188 0.3398438,0.1992188 z m 0.01172,1.9335937 c 0.140625,0 0.328125,0 0.328125,-0.1992187 0,-0.1992188 -0.1875,-0.1992188 -0.339843,-0.1992188 H 8.1452813 c -0.1523438,0 -0.3398438,0 -0.3398438,0.1992188 0,0.1992187 0.1875,0.1992187 0.328125,0.1992187 z m 0,0"
         style="fill:#000000;fill-opacity:1;fill-rule:nonzero;stroke:none" />
      <path
         id="path26"
         d="m 21.079852,-3.0102891 c 0.05859,-0.2578125 0.292968,-1.171875 0.984375,-1.171875 0.04687,0 0.292968,0 0.503906,0.1289063 -0.28125,0.046875 -0.480469,0.3046875 -0.480469,0.5390625 0,0.1640625 0.105469,0.3515625 0.375,0.3515625 0.222656,0 0.539063,-0.1875 0.539063,-0.5859375 0,-0.515625 -0.585938,-0.65625 -0.925782,-0.65625 -0.574218,0 -0.925781,0.5273437 -1.042968,0.7617187 -0.257813,-0.65625 -0.785157,-0.7617187 -1.078125,-0.7617187 -1.042969,0 -1.605469,1.2890625 -1.605469,1.5351562 0,0.1054688 0.105469,0.1054688 0.117187,0.1054688 0.08203,0 0.117188,-0.023437 0.128907,-0.1171875 0.339843,-1.0546875 0.996093,-1.3007813 1.335937,-1.3007813 0.1875,0 0.539063,0.09375 0.539063,0.6679688 0,0.3046875 -0.164063,0.9726562 -0.539063,2.3671875 -0.152344,0.62109374 -0.503906,1.04296874 -0.949219,1.04296874 -0.05859,0 -0.28125,0 -0.492187,-0.12890625 0.246094,-0.0585938 0.46875,-0.26953125 0.46875,-0.5390625 0,-0.26953129 -0.222656,-0.35156249 -0.375,-0.35156249 -0.292969,0 -0.539063,0.25781249 -0.539063,0.57421874 0,0.45703125 0.492188,0.65625 0.9375,0.65625 0.65625,0 1.007813,-0.69140625 1.042969,-0.75 0.117188,0.36328125 0.480469,0.75 1.078125,0.75 1.019531,0 1.59375,-1.27734374 1.59375,-1.53515624 0,-0.09375 -0.09375,-0.09375 -0.128906,-0.09375 -0.08203,0 -0.105469,0.035156 -0.128906,0.1054687 -0.328125,1.06640629 -0.996094,1.31250004 -1.324219,1.31250004 -0.386719,0 -0.539063,-0.328125 -0.539063,-0.65625 0,-0.22265625 0.05859,-0.44531254 0.164063,-0.87890624 z m 0,0"
         style="fill:#000000;fill-opacity:1;fill-rule:nonzero;stroke:none" />
      <path
         id="path27"
         d="m 32.230242,-2.2954453 c 0.175781,0 0.351563,0 0.351563,-0.1992188 0,-0.1992187 -0.175782,-0.1992187 -0.351563,-0.1992187 h -5.390625 c -0.164062,0 -0.339844,0 -0.339844,0.1992187 0,0.1992188 0.175782,0.1992188 0.339844,0.1992188 z m 0,0"
         style="fill:#000000;fill-opacity:1;fill-rule:nonzero;stroke:none" />
      <path
         id="path28"
         d="m 40.468523,-3.7954453 c 0.04687,-0.140625 0.04687,-0.1523438 0.04687,-0.2226563 0,-0.1875 -0.140625,-0.2695312 -0.292968,-0.2695312 -0.105469,0 -0.257813,0.058594 -0.351563,0.1992187 -0.02344,0.058594 -0.09375,0.3632813 -0.140625,0.5390625 -0.07031,0.2578125 -0.140625,0.5273438 -0.199219,0.796875 l -0.445312,1.79296879 c -0.03516,0.15234375 -0.46875,0.85546875 -1.125,0.85546875 -0.503906,0 -0.621094,-0.4453125 -0.621094,-0.80859375 0,-0.45703129 0.175781,-1.07812499 0.515625,-1.95703129 0.152344,-0.4101562 0.199219,-0.515625 0.199219,-0.7148437 0,-0.4453125 -0.328125,-0.8203125 -0.820313,-0.8203125 -0.949218,0 -1.3125,1.453125 -1.3125,1.5351562 0,0.1054688 0.09375,0.1054688 0.117188,0.1054688 0.09375,0 0.105469,-0.023437 0.152344,-0.1875 0.269531,-0.9375 0.667968,-1.2304688 1.007812,-1.2304688 0.08203,0 0.257813,0 0.257813,0.3164063 0,0.2460937 -0.105469,0.515625 -0.175782,0.703125 -0.398437,1.0546875 -0.574218,1.6171875 -0.574218,2.0859375 0,0.89062499 0.621093,1.18359374 1.21875,1.18359374 0.386718,0 0.726562,-0.1640625 0.996093,-0.4453125 -0.128906,0.515625 -0.246093,1.0078125 -0.644531,1.53515626 -0.257812,0.3398437 -0.632812,0.6328125 -1.089844,0.6328125 -0.140625,0 -0.597656,-0.035156 -0.761718,-0.421875 0.164062,0 0.292968,0 0.433593,-0.1171875 0.09375,-0.09375 0.199219,-0.2226563 0.199219,-0.41015626 0,-0.31640625 -0.269531,-0.3515625 -0.375,-0.3515625 -0.222656,0 -0.550781,0.1640625 -0.550781,0.64453126 0,0.5039062 0.433594,0.8671875 1.054687,0.8671875 1.019532,0 2.050782,-0.9023438 2.332032,-2.02734376 z m 3.228516,-2.4257813 c 0,-0.1992187 -0.128906,-0.3632812 -0.363281,-0.3632812 -0.269531,0 -0.539063,0.2578125 -0.539063,0.5273437 0,0.1875 0.140625,0.3632813 0.375,0.3632813 0.234375,0 0.527344,-0.234375 0.527344,-0.5273438 z m -0.75,3.7382813 c 0.117188,-0.28125 0.117188,-0.3046875 0.222656,-0.5742188 0.07031,-0.1992187 0.128907,-0.3398437 0.128907,-0.5273437 0,-0.4453125 -0.328125,-0.8203125 -0.820313,-0.8203125 -0.9375,0 -1.3125,1.453125 -1.3125,1.5351562 0,0.1054688 0.09375,0.1054688 0.117188,0.1054688 0.09375,0 0.105468,-0.023437 0.152343,-0.1875 0.269532,-0.9375 0.667969,-1.2304688 1.007813,-1.2304688 0.08203,0 0.257812,0 0.257812,0.3164063 0,0.2109375 -0.07031,0.421875 -0.117187,0.515625 -0.08203,0.2578125 -0.527344,1.4179687 -0.679688,1.8515625 -0.105468,0.2578125 -0.234375,0.58593749 -0.234375,0.79687499 0,0.46875 0.339844,0.80859375 0.820313,0.80859375 0.9375,0 1.300781,-1.44140624 1.300781,-1.53515624 0,-0.09375 -0.09375,-0.09375 -0.117187,-0.09375 -0.105469,0 -0.105469,0.023437 -0.152344,0.1757812 -0.175781,0.63281254 -0.503906,1.24218754 -1.019531,1.24218754 -0.164063,0 -0.234375,-0.10546875 -0.234375,-0.328125 0,-0.2578125 0.05859,-0.3984375 0.292968,-0.99609374 z m 0,0"
         style="fill:#000000;fill-opacity:1;fill-rule:nonzero;stroke:none" />
    </g>
  </g>
</svg>
